<svg width="42" height="42" viewBox="0 0 42 42" fill="none" xmlns="http://www.w3.org/2000/svg" xmlns:xlink="http://www.w3.org/1999/xlink">
<path d="M28.439,25.222L26.596,25.222L25.943,24.592C28.229,21.932 29.606,18.479 29.606,14.722C29.606,6.346 22.816,-0.444 14.439,-0.444C6.063,-0.444 -0.727,6.346 -0.727,14.722C-0.727,23.099 6.063,29.889 14.439,29.889C18.196,29.889 21.649,28.512 24.309,26.226L24.939,26.879L24.939,28.722L36.606,40.366L40.083,36.889L28.439,25.222ZM14.439,25.222C8.629,25.222 3.939,20.532 3.939,14.722C3.939,8.912 8.629,4.222 14.439,4.222C20.249,4.222 24.939,8.912 24.939,14.722C24.939,20.532 20.249,25.222 14.439,25.222Z" fill="#7D7070"/>
</svg>
