<svg width="66" height="60" viewBox="0 0 66 60" fill="none" xmlns="http://www.w3.org/2000/svg" xmlns:xlink="http://www.w3.org/1999/xlink">
<path d="M51.25,48C52.974,48 54.627,48.632 55.846,49.757C57.065,50.883 57.75,52.409 57.75,54C57.75,55.591 57.065,57.117 55.846,58.243C54.627,59.368 52.974,60 51.25,60C49.526,60 47.873,59.368 46.654,58.243C45.435,57.117 44.75,55.591 44.75,54C44.75,50.67 47.643,48 51.25,48ZM-0.75,0L9.877,0L12.933,6L61,6C61.862,6 62.689,6.316 63.298,6.879C63.908,7.441 64.25,8.204 64.25,9C64.25,9.51 64.087,10.02 63.86,10.5L52.225,29.91C51.12,31.74 48.975,33 46.538,33L22.325,33L19.4,37.89L19.302,38.25C19.302,38.449 19.388,38.64 19.54,38.78C19.693,38.921 19.9,39 20.115,39L57.75,39L57.75,45L18.75,45C17.026,45 15.373,44.368 14.154,43.243C12.935,42.117 12.25,40.591 12.25,39C12.25,37.95 12.543,36.96 13.03,36.12L17.45,28.77L5.75,6L-0.75,6L-0.75,0ZM18.75,48C20.474,48 22.127,48.632 23.346,49.757C24.565,50.883 25.25,52.409 25.25,54C25.25,55.591 24.565,57.117 23.346,58.243C22.127,59.368 20.474,60 18.75,60C17.026,60 15.373,59.368 14.154,58.243C12.935,57.117 12.25,55.591 12.25,54C12.25,50.67 15.142,48 18.75,48ZM48,27L57.035,12L15.955,12L23.625,27L48,27Z" fill="#000000"/>
</svg>
